# AST/ASF file generated using VICON BodyLanguage
# -----------------------------------------------
:version 1.10
:name VICON
:units
  mass 1.0
  length 0.45
  angle deg
:documentation
   .ast/.asf automatically generated from VICON data using
   VICON BodyBuilder and BodyLanguage model FoxedUp or BRILLIANT.MOD
:root
   order TX TY TZ RX RY RZ
   axis XYZ
   position 0 0 0  
   orientation 0 0 0 
:bonedata
  begin
     id 1 
     name lhipjoint
     direction 0.707368 -0.647095 0.284426 
     length 2.60678 
     axis 0 0 0  XYZ
  end
  begin
     id 2 
     name lfemur
     direction 0.34202 -0.939693 0  
     length 6.63812  
     axis 0 0 20  XYZ
    dof rx ry rz
    limits (-160.0 20.0)
           (-70.0 70.0)
           (-60.0 70.0)
  end
  begin
     id 3 
     name ltibia
     direction 0.34202 -0.939693 0   
     length 7.51178   
     axis 0 0 20   XYZ
    dof rx
    limits (-10.0 170.0)
  end
  begin
     id 4 
     name lfoot
     direction 0.121251 -0.333133 0.935051   
     length 1.83716   
     axis -90 7.62852e-016 20   XYZ
    dof rx rz
    limits (-45.0 90.0)
           (-70.0 20.0)
  end
  begin
     id 5 
     name ltoes
     direction 1.53611e-011 -4.21962e-011 1   
     length 0.916133   
     axis -90 7.62852e-016 20   XYZ
    dof rx
    limits (-90.0 20.0)
  end
  begin
     id 6 
     name rhipjoint
     direction -0.692419 -0.660507 0.290321   
     length 2.55385  
     axis 0 0 0  XYZ 
  end
  begin
     id 7 
     name rfemur
     direction -0.34202 -0.939693 0   
     length 7.29079   
     axis 0 0 -20   XYZ
    dof rx ry rz
    limits (-160.0 20.0)
           (-70.0 70.0)
           (-70.0 60.0)
  end
  begin
     id 8 
     name rtibia
     direction -0.34202 -0.939693 0   
     length 7.47143   
     axis 0 0 -20   XYZ
    dof rx
    limits (-10.0 170.0)
 end
 begin
     id 9 
     name rfoot
     direction -0.119907 -0.329441 0.936532   
     length 1.79439  
     axis -90 -7.62852e-016 -20   XYZ
    dof rx rz
    limits (-45.0 90.0)
           (-20.0 70.0)
  end
  begin
     id 10 
     name rtoes
     direction -1.53571e-011 -4.21961e-011 1   
     length 0.896039   
     axis -90 -7.62852e-016 -20   XYZ
    dof rx
    limits (-90.0 20.0)
  end
  begin
     id 11 
     name lowerback
     direction 0.0367721 0.992912 -0.113016   
     length 1.73542   
     axis 0 0 0   XYZ
    dof rx ry rz
    limits (-20.0 45.0)
           (-30.0 30.0)
           (-30.0 30.0)
  end
  begin
     id 12 
     name upperback
     direction -0.000314626 0.990678 0.136227   
     length 1.7514   
     axis 0 0 0   XYZ
    dof rx ry rz
    limits (-20.0 45.0)
           (-30.0 30.0)
           (-30.0 30.0)
  end
  begin
     id 13 
     name thorax
     direction -0.0226159 0.981151 0.191917   
     length 1.71471   
     axis 0 0 0   XYZ
    dof rx ry rz
    limits (-20.0 45.0)
           (-30.0 30.0)
           (-30.0 30.0)
  end
  begin
     id 14 
     name lowerneck
     direction 0.0219333 0.998071 0.0580739   
     length 1.65882   
     axis 0 0 0   XYZ
    dof rx ry rz
    limits (-20.0 45.0)
           (-30.0 30.0)
           (-30.0 30.0)
  end
  begin
     id 15 
     name upperneck
     direction 0.0384529 0.980058 -0.194957   
     length 1.6612   
     axis 0 0 0   XYZ
    dof rx ry rz
    limits (-20.0 45.0)
           (-30.0 30.0)
           (-30.0 30.0)
  end
  begin
     id 16
     name head
     direction 0.00592123 0.997421 -0.0715234  
     length 1.68077  
     axis 0 0 0   XYZ
    dof rx ry rz
    limits (-20.0 45.0)
           (-30.0 30.0)
           (-30.0 30.0)
  end
  begin
     id 17 
     name lclavicle
     direction 0.904803 0.417826 0.0821728  
     length 3.42227  
     axis 0 0 0   XYZ
    dof ry rz
    limits (-20.0 10.0)
           (0.0 20.0)
  end
  begin
     id 18 
     name lhumerus
     direction 1 -4.48965e-011 -2.68786e-027   
     length 5.11878   
     axis -180 -30 -90   XYZ
    dof rx ry rz
    limits (-60.0 90.0)
           (-90.0 90.0)
           (-90.0 90.0)
  end
  begin
     id 19
     name lradius
     direction 1 -4.48965e-011 2.61168e-028   
     length 3.59971   
     axis -180 -30 -90   XYZ
    dof rx
    limits (-10.0 170.0)
  end
  begin
     id 20
     name lwrist
     direction 1 -4.48965e-011 1.58672e-027   
     length 1.79985   
     axis -1.65735e-015 90 90   XYZ
    dof ry
    limits (-180.0 0.0)
 end
  begin
     id 21 
     name lhand
     direction 1 -4.48942e-011 3.17344e-027   
     length 0.62877   
     axis -2.02492e-015 90 90   XYZ
    dof rx rz
    limits (-90.0 90.0)
           (-45.0 45.0)
  end
  begin
     id 22 
     name lfingers
     direction 1 -4.49011e-011 6.34687e-027   
     length 0.506931   
     axis -4.04985e-015 90 90   XYZ
    dof rx
    limits (0.0 90.0)
  end
  begin
     id 23
     name lthumb
     direction 0.707107 -6.34982e-011 0.707107   
     length 0.727854   
     axis -90 45 2.85299e-015   XYZ
    dof rx rz
    limits (-45.0 45.0)
           (-45.0 45.0)
  end
  begin
     id 24 
     name rclavicle
     direction -0.945647 0.32488 0.0143075   
     length 3.52737  
     axis 0 0 0   XYZ 
    dof ry rz
    limits (-10.0 20.0)
           (-20.0 0.0)
  end
  begin
     id 25 
     name rhumerus
     direction -1 -4.48962e-011 1.92182e-027  
     length 5.4902   
     axis -180 30 90   XYZ
    dof rx ry rz
    limits (-90.0 60.0)
           (-90.0 90.0)
           (-90.0 90.0)
  end
  begin
     id 26 
     name rradius
     direction -1 -4.48967e-011 -5.97193e-028   
     length 3.20659   
     axis -180 30 90   XYZ
    dof rx
    limits (-10.0 170.0)
  end
  begin
     id 27 
     name rwrist
     direction -1 -4.48964e-011 1.58672e-027   
     length 1.6033   
     axis -1.65735e-015 -90 -90   XYZ
    dof ry
    limits (-180.0 0.0)
  end
  begin
     id 28
     name rhand
     direction -1 -4.49006e-011 3.17344e-027   
     length 0.691885   
     axis -2.02492e-015 -90 -90   XYZ
    dof rx rz
    limits (-90.0 90.0)
           (-45.0 45.0)
  end
  begin
     id 29
     name rfingers
     direction -1 -4.48908e-011 6.34687e-027   
     length 0.557815   
     axis -4.04985e-015 -90 -90   XYZ
    dof rx
    limits (0.0 90.0)
  end
  begin
     id 30
     name rthumb
     direction -0.707107 -6.34999e-011 0.707107   
     length 0.800915   
     axis -90 -45 -2.85299e-015   XYZ
    dof rx rz
    limits (-45.0 45.0)
           (-45.0 45.0)
  end
:hierarchy
  begin
    root lhipjoint rhipjoint lowerback
    lhipjoint lfemur
    lfemur ltibia
    ltibia lfoot
    lfoot ltoes
    rhipjoint rfemur
    rfemur rtibia
    rtibia rfoot
    rfoot rtoes
    lowerback upperback
    upperback thorax
    thorax lowerneck lclavicle rclavicle
    lowerneck upperneck
    upperneck head
    lclavicle lhumerus
    lhumerus lradius
    lradius lwrist
    lwrist lhand lthumb
    lhand lfingers
    rclavicle rhumerus
    rhumerus rradius
    rradius rwrist
    rwrist rhand rthumb
    rhand rfingers
  end

#!OML:ASF I:\Actors\actors\Patient Classification 1\Patient 1\Session 1\Subject1.ASF
:FULLY-SPECIFIED
:DEGREES
32
root 0.570466 17.4983 9.2515 10.2533 -0.700866 -8.2094
lowerback -1.28086 1.75985 6.86506
upperback -9.79855 2.6555 -0.1018
thorax -9.39069 0.740638 -4.11423
lowerneck -6.46774 -8.73817 -5.75628
upperneck 20.793 -13.4082 9.28642
head 8.54979 -6.01962 2.71784
rclavicle 7.05686e-015 -2.54444e-014
rhumerus -66.1423 -53.2687 -32.3227
rradius 24.828
rwrist 45.121
rhand 8.45838 -33.6559
rfingers 7.12502
rthumb 33.6627 -60.5139
lclavicle 7.05686e-015 -2.54444e-014
lhumerus -56.0873 45.5872 41.9431
lradius 22.9259
lwrist -23.2181
lhand -15.7453 -7.47238
lfingers 7.12502
lthumb 10.4458 22.2481
rfemur -5.4165 26.2747 24.3851
rtibia 1.8795
rfoot -11.0128 -25.8829
rtoes 2.12475
lfemur 3.50255 -46.2471 -11.3367
ltibia -4.36681
lfoot -21.7513 53.0136
ltoes 8.87886
33
root 0.570062 17.4986 9.25128 10.2322 -0.685421 -8.20927
lowerback -1.21077 1.77255 6.89688
upperback -9.82346 2.67922 -0.127764
thorax -9.45592 0.745124 -4.16458
lowerneck -6.4565 -8.69988 -5.63557
upperneck 20.8501 -13.3593 9.20769
head 8.54859 -5.99323 2.67899
rclavicle 9.14409e-015 1.43125e-014
rhumerus -66.3465 -53.2604 -32.2045
rradius 24.8234
rwrist 45.1712
rhand 8.46904 -33.4673
rfingers 7.12502
rthumb 33.6729 -60.3231
lclavicle 9.14409e-015 1.43125e-014
lhumerus -55.9916 45.4579 42.0772
lradius 22.9612
lwrist -23.084
lhand -15.7601 -7.52495
lfingers 7.12502
lthumb 10.4315 22.1963
rfemur -5.37255 26.3078 24.4049
rtibia 1.85345
rfoot -11.0476 -25.9362
rtoes 2.22047
lfemur 3.49264 -46.1344 -11.3189
ltibia -4.36851
lfoot -21.6075 52.91
ltoes 8.87229
34
root 0.569296 17.4986 9.25178 10.2102 -0.665256 -8.21709
lowerback -1.16694 1.7873 6.91977
upperback -9.83232 2.70353 -0.138979
thorax -9.48807 0.753132 -4.1928
lowerneck -6.44699 -8.73021 -5.67673
upperneck 20.8695 -13.4031 9.22571
head 8.56146 -6.01508 2.68657
rclavicle -2.78299e-015 3.97569e-015
rhumerus -66.4143 -53.2018 -32.25
rradius 24.8371
rwrist 45.1069
rhand 8.46964 -33.3766
rfingers 7.12502
rthumb 33.6734 -60.2323
lclavicle -2.78299e-015 3.97569e-015
lhumerus -55.8804 45.361 42.2387
lradius 23.0002
lwrist -22.9176
lhand -15.705 -7.59495
lfingers 7.12502
lthumb 10.4848 22.1236
rfemur -5.32809 26.3315 24.4355
rtibia 1.83603
rfoot -11.0569 -25.98
rtoes 2.13205
lfemur 3.51882 -46.0989 -11.3092
ltibia -4.40156
lfoot -21.4415 52.8888
ltoes 8.65323
35
root 0.568486 17.4982 9.25235 10.2037 -0.648461 -8.24997
lowerback -1.16012 1.80376 6.94836
upperback -9.82722 2.72769 -0.13569
thorax -9.4829 0.763222 -4.20679
lowerneck -6.41756 -8.76542 -5.71926
upperneck 20.8351 -13.4552 9.27496
head 8.55553 -6.04045 2.70491
rclavicle 7.05686e-015 -4.77083e-015
rhumerus -66.3695 -53.1468 -32.4005
rradius 24.8283
rwrist 45.0011
rhand 8.36753 -33.3441
rfingers 7.12502
rthumb 33.5764 -60.2209
lclavicle 7.05686e-015 -4.77083e-015
lhumerus -55.7482 45.3023 42.4068
lradius 23.0254
lwrist -22.77
lhand -15.6582 -7.56405
lfingers 7.12502
lthumb 10.5298 22.1522
rfemur -5.32218 26.318 24.4801
rtibia 1.83563
rfoot -11.0148 -25.9814
rtoes 1.91118
lfemur 3.54029 -46.1371 -11.2779
ltibia -4.41367
lfoot -21.4371 52.9199
ltoes 8.58949
36
root 0.567798 17.4978 9.25245 10.2215 -0.625462 -8.26996
lowerback -1.17858 1.8074 6.95392
upperback -9.82236 2.7317 -0.128137
thorax -9.46614 0.766002 -4.20115
lowerneck -6.40472 -8.7995 -5.74091
upperneck 20.8015 -13.5036 9.30388
head 8.54968 -6.06377 2.71286
rclavicle 1.32192e-014 3.18055e-015
rhumerus -66.3701 -53.1663 -32.4542
rradius 24.7822
rwrist 45.0484
rhand 8.22057 -33.2852
rfingers 7.12502
rthumb 33.4367 -60.1922
lclavicle 1.32192e-014 3.18055e-015
lhumerus -55.6357 45.2569 42.5494
lradius 23.0514
lwrist -22.6675
lhand -15.7218 -7.47869
lfingers 7.12502
lthumb 10.4686 22.2407
rfemur -5.35089 26.3014 24.4956
rtibia 1.83777
rfoot -10.9943 -25.9897
rtoes 1.84369
lfemur 3.49474 -46.1514 -11.2264
ltibia -4.38759
lfoot -21.4603 52.9124
ltoes 8.63404
